<svg style="background: white;" viewBox="0 0 425 308" xmlns="http://www.w3.org/2000/svg" xmlns:xlink="http://www.w3.org/1999/xlink" xml:space="preserve" overflow="hidden">
    <defs>
        <clipPath id="clip0"><rect x="1988" y="1084" width="425" height="308"/></clipPath>
    </defs>
    <g clip-path="url(#clip0)" transform="translate(-1988 -1084)">
        <path d="M2013.56 1085.5 2387.44 1085.5C2400.74 1085.63 2411.46 1096.41 2411.5 1109.68L2411.5 1366.11C2411.53 1371.01 2410.07 1375.79 2407.31 1379.83 2406.81 1381.13 2406.03 1382.3 2405.04 1383.26 2404.37 1383.9 2403.6 1384.43 2402.77 1384.84 2398.43 1388.49 2392.94 1390.5 2387.27 1390.5L2013.56 1390.5C2000.33 1390.37 1989.63 1379.7 1989.5 1366.49L1989.5 1109.68C1989.54 1096.41 2000.26 1085.63 2013.56 1085.5ZM2012.53 1355.93 2138.94 1224.83 2012.53 1118.22 2012.53 1355.93ZM2157.98 1241.19 2022.91 1371.74 2376.92 1371.74 2247.86 1241.19 2210.05 1272.78 2210.05 1272.78C2206.62 1275.63 2201.63 1275.63 2198.2 1272.78L2157.98 1241.19ZM2266.59 1224.59 2388.47 1356.99 2388.47 1117.06 2266.59 1224.59ZM2024.42 1104.06 2203.77 1249.11 2375.2 1104.06Z" stroke="#000000" stroke-width="3.4375" stroke-miterlimit="8" fill-rule="evenodd"/>
    </g>
</svg>