<svg viewBox="0 0 2970 2970" xmlns="http://www.w3.org/2000/svg" xmlns:xlink="http://www.w3.org/1999/xlink" xml:space="preserve" overflow="hidden"><g><path d="M495 843C495 774.517 550.516 719 618.999 719L2351 719C2419.48 719 2475 774.517 2475 843L2475 843C2475 911.483 2419.48 967 2351 967L618.999 967C550.516 967 495 911.483 495 843Z" fill-rule="evenodd"/><path d="M495 1485C495 1416.52 550.516 1361 618.999 1361L2351 1361C2419.48 1361 2475 1416.52 2475 1485L2475 1485C2475 1553.48 2419.48 1609 2351 1609L618.999 1609C550.516 1609 495 1553.48 495 1485Z" fill-rule="evenodd"/><path d="M495 2130C495 2061.52 550.516 2006 618.999 2006L2351 2006C2419.48 2006 2475 2061.52 2475 2130L2475 2130C2475 2198.48 2419.48 2254 2351 2254L618.999 2254C550.516 2254 495 2198.48 495 2130Z" fill-rule="evenodd"/></g></svg>