<svg viewBox="0 0 522 522" xmlns="http://www.w3.org/2000/svg" xmlns:xlink="http://www.w3.org/1999/xlink" xml:space="preserve" overflow="hidden"><defs><clipPath id="clip0"><rect x="1939" y="976" width="522" height="523"/></clipPath></defs><g clip-path="url(#clip0)" transform="translate(-1939 -976)"><path d="M1967.27 976 2143.08 976 2144.08 1091.09C2144.08 1091.87 2144.47 1092.26 2145.25 1092.26L2197.56 1092.2C2198.87 1092.2 2199.93 1091.13 2199.93 1089.82 2199.93 1089.81 2199.93 1089.8 2199.93 1089.79L2199.35 1035.46C2199.32 1033.67 2200.21 1032.77 2201.99 1032.77L2257.88 1032.77C2258.83 1032.77 2259.6 1032 2259.6 1031.05L2259.98 976 2432.93 976 2433 1147.08C2433 1148.37 2431.94 1149.42 2430.63 1149.42L2379.86 1148.76C2377.47 1148.72 2375.5 1150.65 2375.46 1153.06 2375.46 1153.11 2375.46 1153.15 2375.46 1153.2L2376.01 1206.84C2376.01 1208.36 2375.26 1209.11 2373.75 1209.11L2318.03 1209.11C2317.08 1209.11 2316.31 1209.88 2316.31 1210.83L2316.31 1264.17C2316.31 1265.31 2316.88 1265.89 2318.03 1265.89L2373.44 1265.89C2374.72 1265.89 2375.37 1266.53 2375.39 1267.81L2376.08 1323.83C2376.11 1325.39 2376.9 1326.17 2378.45 1326.17L2430.49 1325.83C2431.65 1325.8 2432.6 1326.73 2432.62 1327.89 2432.62 1327.9 2432.62 1327.91 2432.62 1327.92L2432.73 1499 2259.94 1499 2259.74 1445.01C2259.74 1443.16 2258.81 1442.23 2256.95 1442.23L2205.29 1442.23C2201.28 1442.23 2199.31 1440.21 2199.38 1436.17L2200.27 1384.35C2200.3 1383.09 2199.68 1382.45 2198.42 1382.43L2144.8 1382.15C2143.91 1382.15 2143.18 1382.87 2143.18 1383.77L2143.42 1499 1967 1499 1967.27 976Z" fill-rule="evenodd"/></g></svg>