<?xml version="1.0" encoding="UTF-8" standalone="no"?>
<!DOCTYPE svg PUBLIC "-//W3C//DTD SVG 1.1//EN" "http://www.w3.org/Graphics/SVG/1.1/DTD/svg11.dtd">
<svg xmlns="http://www.w3.org/2000/svg" version="1.1" viewBox="0 0 512 512">
<path fill="#000000" d="
  M 225.29 256.83
  A 1.00 0.99 45.2 0 0 225.29 255.42
  Q 169.04 199.17 112.56 142.69
  C 101.48 131.60 107.08 112.68 121.22 107.94
  C 128.74 105.41 137.51 107.37 143.32 113.18
  Q 199.26 169.19 255.29 225.11
  A 1.01 1.01 0.0 0 0 256.71 225.11
  Q 312.40 169.54 367.92 113.95
  C 376.46 105.40 389.82 104.09 398.53 112.65
  C 407.13 121.08 407.65 134.47 398.94 143.18
  Q 342.89 199.24 286.83 255.29
  A 1.01 1.01 0.0 0 0 286.83 256.71
  Q 342.51 312.39 398.43 368.31
  C 413.70 383.57 400.98 408.73 379.69 404.88
  Q 373.87 403.83 368.76 398.74
  Q 312.69 342.84 256.71 286.83
  A 1.00 1.00 0.0 0 0 255.29 286.83
  Q 199.43 342.71 143.30 398.80
  C 126.61 415.48 98.77 396.61 108.58 375.58
  Q 110.50 371.45 118.10 363.82
  Q 171.51 310.15 225.29 256.83
  Z"
/>
</svg>
