<svg width="3253" height="2272" xmlns="http://www.w3.org/2000/svg" xmlns:xlink="http://www.w3.org/1999/xlink" xml:space="preserve" overflow="hidden"><defs><clipPath id="clip0"><rect x="573" y="101" width="3253" height="2272"/></clipPath></defs><g clip-path="url(#clip0)" transform="translate(-573 -101)"><path d="M3753.36 456.926C3715.52 316.972 3606.21 207.3 3466.14 169.873 3277.98 97.3233 1455.35 61.7131 926.676 171.993 786.608 209.842 676.875 319.032 639.44 458.986 554.476 831.302 548.064 1636.26 641.501 2016.89 679.412 2156.9 788.669 2266.52 928.737 2303.94 1301.34 2389.64 3072.75 2401.69 3468.2 2303.94 3608.32 2266.08 3718 2156.9 3755.49 2016.89 3846.02 1611.32 3852.5 856.249 3753.36 456.926Z" fill-rule="evenodd"/><path d="M2734.56 1237.8 1882.56 750.807 1882.56 1724.81Z" fill="#FFFFFF" fill-rule="evenodd"/></g></svg>