<?xml version="1.0" encoding="UTF-8" standalone="no"?>
<!DOCTYPE svg PUBLIC "-//W3C//DTD SVG 1.1//EN" "http://www.w3.org/Graphics/SVG/1.1/DTD/svg11.dtd">
<svg xmlns="http://www.w3.org/2000/svg" version="1.1" viewBox="0 0 32 32">
<path fill="#000000" d="
  M 13.28 28.97
  Q 7.21 22.85 1.35 16.72
  A 1.00 1.00 0.0 0 1 1.36 15.33
  L 14.28 2.16
  Q 16.00 0.42 16.00 2.86
  L 16.00 11.00
  A 1.00 1.00 0.0 0 0 17.00 12.00
  L 29.94 12.00
  A 1.00 1.00 0.0 0 1 30.94 12.99
  L 30.98 18.99
  A 1.00 1.00 0.0 0 1 29.98 20.00
  L 17.00 20.00
  A 1.00 1.00 0.0 0 0 16.00 21.00
  L 16.00 29.26
  Q 16.01 31.61 14.31 29.98
  Q 13.82 29.51 13.28 28.97
  Z"
/>
</svg>
