<?xml version="1.0" encoding="UTF-8" standalone="no"?>
<!DOCTYPE svg PUBLIC "-//W3C//DTD SVG 1.1//EN" "http://www.w3.org/Graphics/SVG/1.1/DTD/svg11.dtd">
<svg xmlns="http://www.w3.org/2000/svg" version="1.1" viewBox="0 0 32 32">
<path fill="#000000" d="
  M 31.21 16.29
  L 16.79 30.88
  A 0.48 0.48 0.0 0 1 15.97 30.54
  L 16.01 20.49
  A 0.48 0.48 0.0 0 0 15.53 20.01
  L 1.48 20.00
  A 0.48 0.48 0.0 0 1 1.00 19.52
  L 1.00 12.49
  A 0.48 0.48 0.0 0 1 1.48 12.01
  L 15.52 11.99
  A 0.48 0.48 0.0 0 0 16.00 11.51
  L 16.02 1.63
  A 0.48 0.48 0.0 0 1 16.84 1.29
  L 31.21 15.61
  A 0.48 0.48 0.0 0 1 31.21 16.29
  Z"
/>
</svg>
