<?xml version="1.0" encoding="utf-8"?>
<svg viewBox="0 0 619 619" xmlns="http://www.w3.org/2000/svg">
  <ellipse style="stroke: rgb(0, 0, 0);" cx="309.5" cy="309.5" rx="309.5" ry="309.5" transform="matrix(1, 0, 0, 1, -7.105427357601002e-15, -7.105427357601002e-15)"/>
  <path fill="#ffffff" d=" M 263.05 250.68 C 271.64 254.61 280.97 251.61 290.45 247.64 Q 300.30 243.51 310.58 244.81 C 326.30 246.80 339.63 259.65 355.18 246.91 Q 359.72 243.18 361.43 240.40 Q 363.49 237.05 365.43 228.49 C 367.52 219.23 368.71 209.72 373.36 201.32 C 380.03 189.31 388.33 177.69 395.92 166.23 C 403.32 155.06 409.21 143.66 413.80 132.29 C 416.58 125.41 416.20 115.56 416.21 108.09 A 0.34 0.34 0.0 0 1 416.88 108.02 C 420.10 124.29 420.94 141.02 416.91 157.17 Q 411.70 178.06 405.34 192.29 Q 398.33 207.98 396.30 213.53 Q 388.46 234.96 394.69 258.79 C 397.01 267.66 403.38 271.62 411.86 267.97 C 418.64 265.06 425.10 258.96 433.39 251.99 Q 439.96 246.48 443.47 241.84 C 452.71 229.64 456.54 214.84 463.56 201.16 Q 469.68 189.27 476.87 178.11 A 0.19 0.19 0.0 0 1 477.21 178.28 Q 472.36 190.55 468.07 202.90 C 466.84 206.42 465.91 210.45 465.65 214.14 Q 464.31 233.11 459.75 251.50 Q 457.74 259.56 454.29 266.68 Q 445.37 285.07 431.06 303.77 Q 424.29 312.60 430.04 320.83 C 442.52 338.71 473.52 310.60 482.13 301.08 A 0.26 0.26 0.0 0 1 482.57 301.32 C 480.07 311.55 476.66 322.32 468.94 330.19 C 461.89 337.37 456.76 343.86 447.23 349.92 Q 441.75 353.40 439.52 355.99 C 433.15 363.37 429.23 376.34 426.71 385.66 C 418.07 417.57 409.10 450.89 397.28 480.27 C 388.91 501.07 372.90 521.59 352.48 531.46 C 347.41 533.90 340.46 534.81 333.57 535.85 Q 299.77 540.97 266.27 533.41 Q 262.24 532.50 258.64 530.54 C 232.80 516.46 219.85 494.17 210.36 467.32 Q 197.83 431.84 188.50 395.38 C 185.12 382.16 181.81 371.33 176.52 360.74 C 174.52 356.74 171.19 353.68 167.03 350.96 C 161.79 347.54 157.02 344.33 152.63 339.62 Q 148.04 334.71 143.45 329.81 C 136.15 322.03 132.19 311.88 130.11 301.53 Q 129.95 300.75 130.49 301.33 C 139.29 310.70 168.50 337.03 181.41 322.34 C 185.92 317.21 185.91 309.12 181.63 303.85 Q 165.87 284.40 156.23 262.24 C 153.33 255.55 152.10 249.22 150.44 240.79 Q 147.94 228.14 146.97 215.25 Q 146.43 208.04 143.96 201.25 Q 139.84 189.96 135.39 178.26 Q 135.17 177.68 135.64 178.09 Q 135.99 178.38 136.42 179.07 Q 142.04 188.14 147.06 197.55 C 154.59 211.65 158.88 228.22 168.60 241.33 Q 172.04 245.97 178.55 251.50 C 189.16 260.49 212.12 283.95 218.69 255.98 Q 223.14 237.03 218.05 218.94 Q 216.98 215.14 210.62 200.40 Q 201.66 179.64 195.73 157.77 C 191.38 141.71 192.39 123.76 195.94 107.66 Q 196.05 107.15 196.44 107.51 Q 196.72 107.76 196.68 108.25 C 195.87 118.96 196.59 127.90 200.81 137.22 C 205.73 148.06 210.80 157.64 217.85 168.11 Q 229.46 185.36 237.55 198.47 C 240.47 203.19 242.76 208.27 243.94 214.15 Q 246.79 228.24 248.46 233.80 Q 252.00 245.60 263.05 250.68 Z M 228.74 477.56 C 230.51 479.50 237.82 483.67 240.24 481.60 C 243.28 479.01 238.20 465.18 236.52 461.85 C 233.04 454.95 230.97 449.48 227.91 443.07 A 1.86 1.85 -45.8 0 0 224.54 443.12 C 223.11 446.32 221.12 449.69 220.47 453.07 C 218.80 461.79 222.79 471.02 228.74 477.56 Z M 386.12 475.14 C 392.39 466.69 395.07 456.98 390.18 447.21 Q 389.07 444.99 388.28 442.98 A 1.62 1.62 0.0 0 0 385.47 442.61 Q 384.20 444.33 383.28 446.67 Q 380.40 454.04 376.85 461.09 Q 374.05 466.67 373.24 469.62 C 372.65 471.74 369.71 482.82 374.24 482.29 Q 381.44 481.45 386.12 475.14 Z" transform="matrix(1, 0, 0, 1, -7.105427357601002e-15, -7.105427357601002e-15)"/>
  <path fill="#404040" d=" M 240.24 481.60 C 237.82 483.67 230.51 479.50 228.74 477.56 C 222.79 471.02 218.80 461.79 220.47 453.07 C 221.12 449.69 223.11 446.32 224.54 443.12 A 1.86 1.85 -45.8 0 1 227.91 443.07 C 230.97 449.48 233.04 454.95 236.52 461.85 C 238.20 465.18 243.28 479.01 240.24 481.60 Z" transform="matrix(1, 0, 0, 1, -7.105427357601002e-15, -7.105427357601002e-15)"/>
  <path fill="#404040" d=" M 390.18 447.21 C 395.07 456.98 392.39 466.69 386.12 475.14 Q 381.44 481.45 374.24 482.29 C 369.71 482.82 372.65 471.74 373.24 469.62 Q 374.05 466.67 376.85 461.09 Q 380.40 454.04 383.28 446.67 Q 384.20 444.33 385.47 442.61 A 1.62 1.62 0.0 0 1 388.28 442.98 Q 389.07 444.99 390.18 447.21 Z" transform="matrix(1, 0, 0, 1, -7.105427357601002e-15, -7.105427357601002e-15)"/>
</svg>