<?xml version="1.0" encoding="UTF-8"?> <svg xmlns="http://www.w3.org/2000/svg" width="151" height="56" fill="none" viewBox="0 0 151 56"><path fill="#FCB415" d="M144.471 4.295c.131.139.286.252.458.334.173.08.36.122.551.124.2.01.398-.046.563-.161.131-.105.205-.266.198-.433.004-.081-.011-.161-.043-.235-.029-.066-.074-.123-.13-.168-.058-.051-.123-.095-.192-.13l-.242-.117-.519-.223c-.087-.037-.174-.087-.266-.136-.088-.052-.167-.116-.236-.192-.073-.075-.132-.163-.173-.26-.046-.114-.069-.236-.068-.359.001-.132.03-.263.087-.383.056-.12.139-.226.241-.31.105-.09.227-.157.359-.198.147-.05.302-.076.458-.074.213-.002.423.04.619.124.175.08.334.19.47.328l-.278.315c-.11-.103-.236-.189-.372-.253-.146-.062-.305-.092-.464-.087-.173-.01-.345.038-.489.136-.122.094-.191.242-.185.396-.005.077.012.155.049.223.037.064.085.12.142.167.062.046.128.086.198.118l.217.099.514.222c.102.044.202.096.297.155.089.054.171.12.241.198.067.08.119.17.155.266.044.115.065.237.062.36 0 .138-.03.275-.087.401-.056.129-.141.243-.247.335-.115.098-.247.173-.39.222-.407.13-.848.105-1.238-.068-.214-.09-.408-.223-.569-.39l.309-.346zM147.429 1.442h.545l.705 1.937.273.749.259-.75.7-1.955h.544v3.652h-.414V3.082v-.539c0-.198.031-.377.043-.538l-.291.81-.705 1.913h-.285l-.705-1.912-.291-.81c0 .16 0 .34.043.537.043.198 0 .378 0 .539v2.011h-.427l.006-3.651z"></path><path fill="#8C5297" fill-rule="evenodd" d="M76.46 22.198c.012.078.012.157 0 .235-.066.347-.25.66-.52.885-.449.391-.957.709-1.504.941-.811.354-1.664.604-2.538.743h-.185c-.223 0-.452.062-.681.08-.924.087-1.852.119-2.779.093-.81 0-1.609-.087-2.395-.173l-1.12-.136c-.749-.093-1.504-.198-2.265-.328-3.385-.533-5.57-1.102-5.805-1.164-6.188-1.38-13.54-2.92-19.314-.823-1.485.545-2.803 1.522-3.014 2.94-.165 1.576-.223 3.162-.173 4.746 0 1.653-.105 2.921-.068 3.781.017-.094.042-.187.074-.278.056-.152.136-.294.235-.421.053-.082.113-.159.18-.229l.05-.056c.06-.064.127-.124.197-.18.133-.123.275-.235.427-.333.136-.093.273-.174.409-.248.136-.074.365-.186.557-.272.191-.087.507-.21.773-.303.807-.273 1.635-.48 2.476-.62 1.407-.21 2.828-.308 4.251-.29 2.417.026 4.83.233 7.216.619 1.046.167 2.08.359 3.094.57l1.09.216c5.854 1.237 10.879 2.673 15.694 2.116 2.376-.278 5.303-.903 5.57-2.803.098-.978 0-2.785.049-4.809.043-1.782.216-3.65.018-4.499z" clip-rule="evenodd"></path><path fill="#8C5297" fill-rule="evenodd" d="M73.606 24.333c.45-.147.885-.336 1.3-.563.504-.244.942-.607 1.275-1.058.092-.145.146-.311.154-.483-.01-.089-.037-.175-.08-.253-.23-.426-.627-.736-1.095-.854-.142-.045-.287-.08-.434-.106-.788-.12-1.59-.134-2.382-.043-.624.07-1.244.176-1.857.316l1.659 3.434.353-.068c.374-.088.744-.195 1.107-.322zM34.21 34.322c.003.018.003.037 0 .055v.322c0 .29.087.507.26.557h.056l1.336-2.76c-.748.39-1.547.971-1.652 1.825z" clip-rule="evenodd"></path><path fill="#FCB415" d="M15.83 43.332c-1.417 0-2.859-.062-4.276-.192-1.417-.13-2.834-.315-4.227-.57-.322-.067-3.577-.674-4.047-.791-.693-.167-1.238-.285-1.59-.36-.164-.057-.305-.165-.403-.309-.143-.177-.231-.392-.254-.618L.241 30.07c-.062-.619.143-.848.328-.984.11-.094.251-.147.396-.148.153.004.302.046.434.123 2.208 1.15 4.48 2.17 6.807 3.057 2.655 1.053 5.475 1.63 8.33 1.702 1.32.052 2.636-.176 3.861-.668 1.455-.619 1.764-1.646 1.764-2.37-.056-.717-.448-1.365-1.058-1.745-.972-.663-2.958-1.306-6.114-1.993-5.57-1.238-9.469-2.884-11.585-4.846C1.144 20.131 0 17.186 0 13.435c0-4.394 1.411-7.76 4.19-10C6.968 1.195 11.028 0 16.134 0c2.438.017 4.87.272 7.259.761 1.274.26 2.351.495 3.273.712.772.164 1.535.37 2.284.619.167.054.31.166.402.315.129.164.214.358.248.563l1.002 9.648c.082.389-.055.79-.359 1.046-.097.094-.224.149-.359.155-.146-.008-.287-.055-.408-.136-1.06-.57-2.16-1.098-3.299-1.584-1.132-.477-2.339-.929-3.57-1.337-2.196-.74-4.491-1.142-6.808-1.195-1.229-.042-2.458.1-3.645.421-1.46.464-1.677 1.424-1.677 1.956s.285 1.448 1.659 1.999c.767.297 1.714.619 2.816.978 1.293.404 2.61.732 3.942.984 5.173 1.138 8.763 2.772 10.638 4.857 2.091 2.222 3.15 5.112 3.15 8.59.04 2.07-.354 4.126-1.158 6.034-.736 1.682-1.86 3.166-3.28 4.332-1.562 1.236-3.354 2.149-5.272 2.686-2.318.65-4.716.964-7.123.934M143.376 33.115c-.131-.17-.336-.267-.551-.26H124.16v-5.96l14.896-.061c.214-.003.414-.104.545-.273.186-.21.284-.486.272-.767v-7.928c.005-.263-.093-.518-.272-.711-.131-.17-.331-.27-.545-.273H124.16V11.14h17.328c.216 0 .418-.103.545-.278.192-.206.292-.48.278-.761V2.055c.006-.263-.094-.518-.278-.706-.129-.172-.33-.275-.545-.278H101.56c-.157.015-.306.078-.427.18-.15.095-.268.233-.341.395l-9.233 22.898L81.967 1.67c-.079-.177-.205-.33-.365-.44-.12-.093-.264-.149-.415-.16h-11.25c-.314-.027-.615.13-.774.402-.183.32-.183.713 0 1.033l17.91 39.904c.076.156.196.285.346.371.117.102.261.169.415.192h6.51c.146-.02.285-.077.402-.167.15-.094.278-.22.372-.371L111.783 5.6v36.333c-.005.264.095.52.279.711.127.17.326.27.538.272h30.243c.215.007.42-.09.551-.26.177-.199.272-.457.266-.723v-8.045c.005-.285-.096-.56-.284-.774z"></path><path fill="#FCB415" fill-rule="evenodd" d="M70.357 24.934c.526-.038 1.022-.1 1.523-.168H72.109l-11.09-23.02c-.09-.17-.222-.313-.384-.415-.102-.086-.227-.142-.359-.161h-8.775c-.142.03-.275.091-.39.18-.152.07-.277.19-.353.34l-9.703 20.038h.111c3.67-.427 7.686.099 11.498.842l.21.043 2.94-6.114 3.46 7.302c1.912.371 3.905.712 5.842.94 1.736.236 3.492.3 5.241.193zM39.495 31.37c-.49.077-.975.18-1.454.31h-.143l-.29.08c-.273.08-.539.167-.799.266-.248.09-.492.193-.73.31l-.235.123-4.332 8.98c-.22.312-.245.722-.062 1.058.17.309.51.483.86.44h10.248c.151-.009.296-.063.415-.156.152-.102.279-.238.371-.396l5.304-11.04c-1.577-.196-3.164-.304-4.753-.322-1.473 0-2.945.116-4.4.347zM80.19 41.507l-4.288-8.9c-.978 1.096-3.218 1.554-5.074 1.77-2.228.215-4.474.125-6.678-.266l3.955 8.355c.063.144.171.264.31.34.116.09.255.148.401.167h10.595c.52 0 .693-.198.799-.39.169-.34.162-.742-.02-1.076z" clip-rule="evenodd"></path><path fill="#FCB415" d="M.316 54.224l.563-.662c.38.376.888.597 1.423.619.619 0 .953-.279.953-.706 0-.427-.353-.619-.848-.798l-.748-.328c-.64-.196-1.084-.78-1.102-1.448.029-.456.245-.88.596-1.171.351-.292.807-.426 1.26-.37.634.003 1.24.254 1.69.699l-.501.619c-.323-.301-.747-.469-1.188-.47-.514 0-.854.24-.854.618s.414.62.866.774l.743.31c.66.182 1.112.788 1.101 1.472 0 .885-.736 1.628-1.962 1.628-.742.011-1.458-.271-1.992-.786z"></path><path fill="#FCB415" fill-rule="evenodd" d="M7.352 52.305c-1.683.18-2.414.638-2.414 1.517-.022.333.101.66.339.895.238.236.566.356.9.33.477-.026.93-.224 1.274-.557l.074.452h.786v-2.426c0-1.157-.501-1.776-1.528-1.776-.6.018-1.184.204-1.684.538l.353.619c.34-.235.738-.374 1.151-.402.557 0 .749.365.749.81zm0 .582V53.828c-.224.246-.534.397-.866.42-.372 0-.62-.105-.62-.52 0-.414.372-.705 1.486-.84zM10.997 48.92c-.972 0-1.361.625-1.361 1.473v.432l-.551.039v.724h.55v3.335h.96v-3.335h.823v-.768h-.823v-.44c0-.476.18-.692.52-.692.153 0 .306.034.445.099l.186-.724c-.24-.09-.493-.139-.749-.143zm-.402 1.9h-.891l-.069.005v.763h.96v-.768zM12.256 51.41c-.357.406-.534.939-.492 1.477-.054.57.141 1.136.535 1.553.393.416.947.642 1.52.62.502-.009.99-.164 1.405-.446l-.328-.619c-.282.19-.614.293-.953.297-.318.02-.63-.09-.865-.307-.234-.216-.369-.52-.373-.838h2.605c.025-.153.038-.308.037-.464 0-1.151-.581-1.95-1.689-1.95-.54.027-1.045.271-1.402.677zm1.42.066c.564 0 .842.396.842 1.015h-1.825c.009-.545.44-.989.984-1.015zM20.23 49.459h-1.139l-1.776 5.464h.984l.428-1.479h1.837l.421 1.48h1.027l-1.782-5.465zm.116 3.224h.596v.761h-.378l-.218-.761zm0 0h-1.398l.193-.668c.173-.564.334-1.182.483-1.801h.037l.099.371c.128.483.258.972.396 1.43l.19.668zm-1.398 0l-.22.761h-.36v-.761h.58z" clip-rule="evenodd"></path><path fill="#FCB415" d="M22.557 53.871V49.02h.966v4.902c0 .235.105.321.204.321.051.008.103.008.154 0l.118.718c-.162.063-.334.092-.507.087-.687-.019-.935-.464-.935-1.176zM24.958 53.543v-1.956h-.581v-.724l.618-.043.118-1.12h.798v1.12h1.046v.767h-1.033v1.95c0 .483.185.724.581.724.147-.008.291-.039.427-.093l.168.706c-.27.096-.555.148-.842.154-.947 0-1.3-.6-1.3-1.485z"></path><path fill="#FCB415" fill-rule="evenodd" d="M27.92 51.41c-.358.406-.535.939-.493 1.477-.053.57.141 1.136.535 1.553.394.416.948.642 1.52.62.502-.009.99-.164 1.405-.446l-.328-.619c-.282.19-.613.293-.953.297-.318.019-.63-.093-.863-.309-.233-.216-.369-.518-.375-.836h2.606c.027-.153.042-.308.043-.464 0-1.151-.588-1.95-1.696-1.95-.54.027-1.045.271-1.402.677zm1.42.066c.563 0 .841.396.841 1.015h-1.825c.009-.545.44-.989.984-1.015z" clip-rule="evenodd"></path><path fill="#FCB415" d="M31.933 50.82h.792l.074.73c.208-.47.657-.788 1.17-.829.158-.007.317.02.464.08l-.118.849c-.136-.04-.278-.061-.42-.062-.329 0-.725.222-.972.847v2.476h-.99v-4.09zM35.052 50.82h.786l.074.557c.339-.393.824-.63 1.343-.656.879 0 1.238.619 1.238 1.628v2.574h-.904v-2.475c0-.675-.198-.928-.619-.928-.373.027-.715.215-.94.513v2.865h-.978V50.82z"></path><path fill="#FCB415" fill-rule="evenodd" d="M41.921 52.305c-1.683.18-2.413.638-2.413 1.517-.023.333.1.66.338.895.238.236.566.356.9.33.478-.024.931-.222 1.274-.557l.074.452h.792v-2.426c0-1.157-.507-1.776-1.534-1.776-.6.018-1.184.204-1.684.538l.353.619c.343-.235.743-.374 1.157-.402.551 0 .743.365.743.81zm0 .582V53.828c-.224.246-.534.397-.866.42-.372 0-.62-.105-.62-.52 0-.414.372-.705 1.486-.84z" clip-rule="evenodd"></path><path fill="#FCB415" d="M44.05 53.543v-1.956h-.582v-.724l.619-.043.118-1.12h.798v1.12h1.07v.767h-1.058v1.95c0 .483.186.724.582.724.146-.009.29-.04.427-.093l.16.706c-.267.096-.55.149-.834.154-.947 0-1.3-.6-1.3-1.485z"></path><path fill="#FCB415" fill-rule="evenodd" d="M47.136 48.936c-.227.12-.357.367-.326.622.002.157.071.305.189.409.118.104.274.153.43.135.257-.002.485-.162.575-.402.09-.24.022-.512-.17-.681-.194-.17-.47-.203-.698-.083zm.75 1.86h-.965v4.102h.966v-4.103z" clip-rule="evenodd"></path><path fill="#FCB415" d="M48.599 50.82h.977l.62 2.129c.117.402.234.823.346 1.238h.037c.111-.415.235-.836.346-1.238l.62-2.129h.934l-1.399 4.103h-1.114L48.6 50.82z"></path><path fill="#FCB415" fill-rule="evenodd" d="M53.416 51.41c-.357.406-.534.939-.492 1.477-.054.57.14 1.134.533 1.55.392.416.944.643 1.516.622.501-.008.99-.163 1.404-.445l-.321-.619c-.283.188-.614.29-.953.297-.318.019-.63-.093-.863-.309-.233-.216-.369-.518-.375-.836h2.605c.03-.153.045-.308.044-.464 0-1.151-.588-1.95-1.696-1.95-.54.027-1.045.271-1.402.677zm1.42.066c.564 0 .842.396.842 1.015h-1.825c.009-.545.44-.989.983-1.015z" clip-rule="evenodd"></path><path fill="#FCB415" d="M57.027 54.453l.446-.619c.313.28.713.44 1.132.458.446 0 .656-.21.656-.489 0-.278-.44-.501-.879-.668-.538-.198-1.15-.508-1.15-1.195s.569-1.237 1.49-1.237c.497.005.977.177 1.362.488l-.439.62c-.253-.214-.567-.34-.897-.36-.415 0-.62.199-.62.452 0 .254.415.452.861.62.557.21 1.176.476 1.176 1.237 0 .761-.557 1.275-1.59 1.275-.567-.016-1.112-.22-1.548-.582zM62.85 53.543v-1.956h-.618v-.724l.619-.043.111-1.12h.798v1.12h1.046v.767H63.76v1.95c0 .483.186.724.582.724.147-.008.29-.039.427-.093l.167.706c-.27.096-.554.148-.841.154-.898 0-1.244-.6-1.244-1.485z"></path><path fill="#FCB415" fill-rule="evenodd" d="M67.393 51.121c-1.056-.068-1.976.713-2.08 1.766-.046.55.139 1.094.51 1.503.37.408.895.644 1.446.65 1.058-.001 1.924-.841 1.958-1.9.033-1.057-.778-1.95-1.834-2.019zm-.124.398c.6 0 .96.545.96 1.368 0 .81-.36 1.368-.96 1.368s-.965-.545-.965-1.368c0-.823.365-1.367.965-1.367z" clip-rule="evenodd"></path><path fill="#FCB415" d="M71.15 49.459h1.027l.767 2.747c.18.62.303 1.158.483 1.783h.037c.18-.62.31-1.164.476-1.783l.762-2.747h.99l-1.69 5.464h-1.15l-1.703-5.464z"></path><path fill="#FCB415" fill-rule="evenodd" d="M76.756 49.112c-.275 0-.517.182-.594.446.077.264.32.445.594.445.275 0 .517-.181.594-.445-.077-.264-.319-.446-.594-.446zm.477 1.683h-.96v4.103h.96v-4.103zM80.273 51.121c-1.056-.07-1.977.712-2.081 1.766-.046.549.137 1.092.507 1.5.37.409.892.645 1.442.654 1.06.001 1.928-.838 1.964-1.896.036-1.058-.775-1.954-1.832-2.024zm-.132.398c.6 0 .966.545.966 1.368 0 .81-.365 1.368-.966 1.368-.6 0-.965-.545-.965-1.368 0-.823.365-1.367.965-1.367z" clip-rule="evenodd"></path><path fill="#FCB415" d="M82.994 53.871V49.02h.966v4.902c0 .235.105.321.204.321.051.008.103.008.155 0l.117.718c-.161.063-.334.092-.507.087-.681-.019-.935-.464-.935-1.176z"></path><path fill="#FCB415" fill-rule="evenodd" d="M85.479 51.41c-.357.406-.534.939-.492 1.477-.054.57.14 1.134.532 1.55.393.416.945.643 1.516.622.504-.007.995-.162 1.411-.445l-.328-.619c-.282.189-.613.292-.953.297-.317.019-.629-.093-.862-.309-.234-.216-.37-.518-.375-.836h2.605c.03-.153.045-.308.043-.464 0-1.151-.581-1.95-1.695-1.95-.54.027-1.046.271-1.402.677zm1.42.066c.563 0 .848.396.848 1.015h-1.826c.006-.544.435-.989.978-1.015z" clip-rule="evenodd"></path><path fill="#FCB415" d="M89.499 50.82h.785l.075.557c.342-.393.829-.63 1.349-.656.879 0 1.237.619 1.237 1.628v2.574h-.959v-2.475c0-.675-.198-.928-.619-.928-.372.027-.715.215-.94.513v2.865h-.96l.032-4.078zM94.344 53.543v-1.956h-.619v-.724l.62-.043.11-1.12h.799v1.12h1.052v.767h-1.052v1.95c0 .483.192.724.581.724.149-.008.295-.04.434-.093l.16.706c-.27.097-.554.15-.841.154-.916 0-1.244-.6-1.244-1.485zM98.942 49.459h3.292v.817h-2.32v1.373h1.968v.817h-1.968v1.659h2.407v.817h-3.379v-5.483zM103.355 50.82h.792l.074.557c.341-.394.829-.63 1.349-.656.879 0 1.238.619 1.238 1.628v2.574h-.966v-2.475c0-.675-.192-.928-.619-.928-.371.028-.711.215-.934.513v2.865h-.965l.031-4.078zM107.526 50.82h.971l.656 2.129c.112.402.235.823.347 1.238l.346-1.238.656-2.129h.929l-1.393 4.103h-1.114l-1.398-4.103z"></path><path fill="#FCB415" fill-rule="evenodd" d="M112.656 49.112c-.275 0-.517.182-.594.446.077.264.319.445.594.445.275 0 .517-.181.594-.445-.077-.264-.319-.446-.594-.446zm.476 1.683h-.959v4.103h.959v-4.103z" clip-rule="evenodd"></path><path fill="#FCB415" d="M114.358 50.82h.792l.074.73c.207-.468.653-.786 1.164-.829.16-.007.321.02.47.08l-.173.836c-.137-.04-.279-.062-.421-.062-.328 0-.718.223-.966.848v2.475h-.965l.025-4.078z"></path><path fill="#FCB415" fill-rule="evenodd" d="M119.197 51.121c-1.056-.068-1.976.713-2.079 1.766-.045.55.14 1.093.511 1.5.37.409.893.645 1.444.654 1.059-.002 1.925-.842 1.958-1.9.033-1.058-.778-1.951-1.834-2.02zm-.124.398c.601 0 .96.545.96 1.368 0 .81-.359 1.368-.96 1.368-.6 0-.965-.545-.965-1.368 0-.823.365-1.367.965-1.367z" clip-rule="evenodd"></path><path fill="#FCB415" d="M121.976 50.82h.792l.074.557c.342-.393.829-.63 1.349-.656.879 0 1.238.619 1.238 1.628v2.574h-.965v-2.475c0-.675-.192-.928-.619-.928-.371.03-.711.216-.935.513v2.865h-.965l.031-4.078zM126.654 50.82h.792l.075.557c.305-.378.753-.615 1.237-.656.501-.04.966.263 1.133.737.315-.421.794-.69 1.318-.737.866 0 1.238.62 1.238 1.628v2.574h-.966v-2.475c0-.675-.198-.928-.618-.928-.345.046-.656.232-.861.513v2.865h-.959v-2.475c0-.674-.204-.928-.619-.928-.345.047-.655.232-.86.514v2.865h-.965l.055-4.054z"></path><path fill="#FCB415" fill-rule="evenodd" d="M133.918 51.41c-.356.406-.532.94-.487 1.477-.056.57.137 1.136.53 1.552.393.417.946.643 1.518.62.502-.008.99-.163 1.405-.445l-.328-.619c-.283.189-.613.292-.953.297-.318.019-.629-.093-.863-.309-.233-.216-.369-.518-.375-.836h2.612c.025-.153.037-.308.037-.464 0-1.151-.582-1.95-1.696-1.95-.539.027-1.044.272-1.4.678zm1.425.066c.557 0 .842.396.842 1.015h-1.826c.006-.546.438-.992.984-1.015z" clip-rule="evenodd"></path><path fill="#FCB415" d="M137.936 50.82h.786l.074.557c.339-.393.825-.63 1.343-.656.879 0 1.238.619 1.238 1.628v2.574h-.959v-2.475c0-.675-.192-.928-.619-.928-.373.027-.716.215-.941.513v2.865h-.959l.037-4.078zM142.757 53.543v-1.956h-.582v-.724l.619-.043.118-1.12h.798v1.12h1.046v.767h-1.046v1.95c0 .483.186.724.582.724.146-.009.29-.04.427-.093l.161.706c-.269.096-.551.149-.836.154-.934 0-1.287-.6-1.287-1.485zM145.139 54.453l.446-.619c.313.28.713.44 1.132.458.452 0 .663-.21.663-.489 0-.278-.446-.501-.885-.668-.539-.198-1.151-.508-1.151-1.195s.575-1.237 1.491-1.237c.498.004.98.176 1.368.488l-.446.62c-.252-.214-.567-.34-.897-.36-.415 0-.619.199-.619.452 0 .254.415.452.86.62.551.21 1.176.476 1.176 1.237 0 .761-.563 1.275-1.597 1.275-.564-.018-1.106-.223-1.541-.582z"></path></svg> 